<svg width="14" height="14" viewBox="0 0 14 14" fill="none" xmlns="http://www.w3.org/2000/svg">
<path fill-rule="evenodd" clip-rule="evenodd" d="M13.3533 6.92825C13.3533 10.5101 10.4399 13.4171 6.86453 13.4171L6.683 13.4146C3.18501 13.3183 0.375732 10.4494 0.375732 6.92825C0.375732 3.35292 3.28272 0.439453 6.86453 0.439453C10.4399 0.439453 13.3533 3.35292 13.3533 6.92825ZM5.57964 4.33266C5.39147 4.52733 5.39147 4.8323 5.58613 5.02047L7.50033 6.92818L5.58613 8.83589C5.39147 9.02406 5.39147 9.33553 5.57964 9.5237C5.77431 9.71837 6.07928 9.71837 6.26746 9.5237L8.53205 7.27209C8.62289 7.18124 8.6748 7.05796 8.6748 6.92818C8.6748 6.79841 8.62289 6.67512 8.53205 6.58428L6.26746 4.33266C6.17661 4.23533 6.05333 4.18991 5.93004 4.18991C5.80026 4.18991 5.67698 4.23533 5.57964 4.33266Z" fill="#69B99D"/>
</svg>
