<svg width="30" height="30" viewBox="0 0 30 30" fill="none" xmlns="http://www.w3.org/2000/svg">
<path fill-rule="evenodd" clip-rule="evenodd" d="M15.07 0.306103C15.303 0.0968289 15.6113 -0.012867 15.9269 0.00120433C22.5974 0.200973 28.1722 5.04539 29.1826 11.5201C29.189 11.5588 29.189 11.5982 29.1826 11.6369C29.2044 11.9432 29.1009 12.2455 28.895 12.4767C28.6892 12.708 28.3979 12.8492 28.0857 12.8692L16.8784 13.6086C16.5078 13.6415 16.1402 13.5194 15.866 13.2725C15.5918 13.0256 15.4364 12.6767 15.4379 12.3114L14.6846 1.29838V1.11678C14.6983 0.807039 14.8369 0.515376 15.07 0.306103ZM14.3014 16.4884L24.0152 15.8658L24.0813 15.8917C24.4984 15.8985 24.8957 16.0677 25.1857 16.3621C25.4757 16.6565 25.6346 17.0519 25.6276 17.4613C25.2448 23.0415 21.1554 27.7039 15.5902 28.905C10.025 30.1062 4.32001 27.5578 1.58748 22.65C0.784002 21.2365 0.276264 19.6797 0.0940626 18.071C0.0233957 17.5943 -0.00754439 17.1127 0.00154984 16.6311C0.0199678 10.6974 4.24281 5.57584 10.1515 4.3209C10.8668 4.18696 11.584 4.54424 11.896 5.19C11.9737 5.30718 12.0359 5.43359 12.0811 5.56619C12.1918 7.27662 12.3067 8.97085 12.4211 10.6579C12.5115 11.9904 12.6015 13.3184 12.689 14.6464C12.6845 14.9592 12.7336 15.2706 12.8344 15.5674C13.0716 16.1514 13.6617 16.522 14.3014 16.4884Z" fill="#69B99D"/>
</svg>
