<svg width="30" height="29" viewBox="0 0 30 29" fill="none" xmlns="http://www.w3.org/2000/svg">
<path fill-rule="evenodd" clip-rule="evenodd" d="M20.5307 0.619374C21.4516 0.619374 22.371 0.749312 23.2452 1.04277C28.6317 2.79475 30.5727 8.70768 28.9513 13.876C28.0319 16.5171 26.5288 18.9275 24.5601 20.8971C21.742 23.6272 18.6496 26.0508 15.3208 28.1386L14.9559 28.359L14.5765 28.124C11.236 26.0508 8.12604 23.6272 5.28172 20.8825C3.32616 18.913 1.82154 16.5171 0.88754 13.876C-0.761554 8.70768 1.17942 2.79475 6.62434 1.01211C7.04756 0.866111 7.48392 0.763912 7.92173 0.706973H8.09685C8.50694 0.647113 8.9141 0.619374 9.32273 0.619374H9.48326C10.4027 0.647113 11.2929 0.807711 12.1554 1.10117H12.2415C12.2999 1.12891 12.3436 1.15957 12.3728 1.18731C12.6953 1.29097 13.0004 1.40776 13.2922 1.56836L13.8468 1.81656C13.9808 1.88806 14.1312 1.9973 14.2612 2.09172C14.3436 2.15154 14.4177 2.20541 14.4743 2.23995C14.4981 2.25401 14.5223 2.26815 14.5468 2.2824C14.6719 2.35547 14.8022 2.43159 14.9121 2.51589C16.5335 1.27637 18.5022 0.604774 20.5307 0.619374ZM24.4126 11.1314C25.0109 11.1154 25.5217 10.635 25.5655 10.0204V9.84663C25.6092 7.8012 24.3702 5.94848 22.4862 5.23309C21.8878 5.02724 21.2311 5.34989 21.0122 5.96308C20.8079 6.57628 21.129 7.24787 21.7419 7.4654C22.6774 7.8158 23.3034 8.73705 23.3034 9.75758V9.80283C23.2757 10.1372 23.3764 10.4598 23.5807 10.708C23.785 10.9562 24.0915 11.1008 24.4126 11.1314Z" fill="#69B99D"/>
</svg>
