<svg width="27" height="27" viewBox="0 0 27 27" fill="none" xmlns="http://www.w3.org/2000/svg">
<circle cx="13.9405" cy="13.4291" r="12.9776" fill="#F8F9F9"/>
<path d="M13.9403 11.9227C13.1084 11.9227 12.434 12.5972 12.434 13.4291C12.434 14.261 13.1084 14.9354 13.9403 14.9354C14.7723 14.9354 15.4467 14.261 15.4467 13.4291C15.4467 12.5972 14.7723 11.9227 13.9403 11.9227Z" fill="#29CDB5"/>
<path fill-rule="evenodd" clip-rule="evenodd" d="M11.5161 9.29546C13.1142 9.11684 14.7664 9.11684 16.3646 9.29546C17.2445 9.3938 17.9541 10.0871 18.0574 10.97C18.2485 12.6038 18.2485 14.2543 18.0574 15.8881C17.9541 16.7711 17.2445 17.4643 16.3646 17.5627C14.7664 17.7413 13.1142 17.7413 11.5161 17.5627C10.6362 17.4643 9.92652 16.7711 9.82325 15.8881C9.63216 14.2543 9.63216 12.6038 9.82325 10.97C9.92652 10.0871 10.6362 9.3938 11.5161 9.29546ZM16.2578 10.6482C16.0018 10.6482 15.7943 10.8557 15.7943 11.1116C15.7943 11.3676 16.0018 11.5751 16.2578 11.5751C16.5137 11.5751 16.7212 11.3676 16.7212 11.1116C16.7212 10.8557 16.5137 10.6482 16.2578 10.6482ZM11.7388 13.4291C11.7388 12.2132 12.7244 11.2275 13.9403 11.2275C15.1562 11.2275 16.1419 12.2132 16.1419 13.4291C16.1419 14.645 15.1562 15.6306 13.9403 15.6306C12.7244 15.6306 11.7388 14.645 11.7388 13.4291Z" fill="#29CDB5"/>
</svg>
