<svg width="25" height="30" viewBox="0 0 25 30" fill="none" xmlns="http://www.w3.org/2000/svg">
<path fill-rule="evenodd" clip-rule="evenodd" d="M0.141113 12.6965C0.141113 5.98077 5.75078 0.552734 12.5362 0.552734C19.3408 0.552734 24.9505 5.98077 24.9505 12.6965C24.9505 16.0806 23.7202 19.2224 21.6953 21.8853C19.4615 24.8227 16.7082 27.3819 13.609 29.3908C12.8997 29.8551 12.2596 29.8901 11.4811 29.3908C8.3643 27.3819 5.61098 24.8227 3.39625 21.8853C1.36988 19.2224 0.141113 16.0806 0.141113 12.6965ZM8.45105 13.0747C8.45105 15.3244 10.2861 17.0939 12.5362 17.0939C14.7877 17.0939 16.6404 15.3244 16.6404 13.0747C16.6404 10.8424 14.7877 8.98687 12.5362 8.98687C10.2861 8.98687 8.45105 10.8424 8.45105 13.0747Z" fill="#69B99D"/>
</svg>
