<svg width="29" height="23" viewBox="0 0 29 23" fill="none" xmlns="http://www.w3.org/2000/svg">
<path d="M0.777344 22.6513V15.2703C0.777344 12.5125 1.26546 9.97108 2.24168 7.64593C3.21791 5.32077 4.87207 2.96858 7.20416 0.589355L11.4345 3.91487C10.0786 5.2667 9.04814 6.53743 8.34309 7.72704C7.63804 8.91665 7.17704 10.1333 6.96011 11.377H12.1666V22.6513H0.777344ZM16.641 22.6513V15.2703C16.641 12.5125 17.1291 9.97108 18.1053 7.64593C19.0816 5.32077 20.7357 2.96858 23.0678 0.589355L27.2981 3.91487C25.9423 5.2667 24.9118 6.53743 24.2068 7.72704C23.5017 8.91665 23.0407 10.1333 22.8238 11.377H28.0303V22.6513H16.641Z" fill="#B5B5B5"/>
</svg>
