<svg width="70" height="13" viewBox="0 0 70 13" fill="none" xmlns="http://www.w3.org/2000/svg">
<g clip-path="url(#clip0_1042_415)">
<path d="M9.36137 10.798C9.28354 10.7983 9.20678 10.7799 9.13751 10.7444L6.65554 9.44506L4.17358 10.7444C4.09298 10.7868 4.00211 10.8057 3.9113 10.7991C3.82049 10.7924 3.73338 10.7603 3.65987 10.7066C3.58636 10.6528 3.5294 10.5796 3.49547 10.4951C3.46154 10.4106 3.45199 10.3182 3.46792 10.2286L3.95458 7.48869L1.94954 5.54205C1.88698 5.47962 1.84261 5.40134 1.82117 5.31561C1.79974 5.22987 1.80205 5.13991 1.82787 5.05539C1.85608 4.9689 1.90797 4.89205 1.97764 4.83355C2.04732 4.77506 2.132 4.73726 2.22207 4.72446L4.99603 4.32053L6.21755 1.82397C6.2574 1.74169 6.31962 1.6723 6.39708 1.62374C6.47455 1.57519 6.56412 1.54944 6.65554 1.54944C6.74696 1.54944 6.83654 1.57519 6.914 1.62374C6.99147 1.6723 7.05369 1.74169 7.09354 1.82397L8.32965 4.31567L11.1036 4.7196C11.1937 4.7324 11.2784 4.77019 11.348 4.82868C11.4177 4.88718 11.4696 4.96403 11.4978 5.05052C11.5236 5.13504 11.5259 5.225 11.5045 5.31074C11.4831 5.39648 11.4387 5.47476 11.3761 5.53718L9.37111 7.48382L9.85777 10.2237C9.87514 10.315 9.86604 10.4093 9.83155 10.4955C9.79706 10.5817 9.73861 10.6563 9.6631 10.7104C9.57498 10.7721 9.46887 10.8029 9.36137 10.798Z" fill="#69B99D"/>
</g>
<g clip-path="url(#clip1_1042_415)">
<path d="M23.6368 10.7982C23.5589 10.7985 23.4822 10.7802 23.4129 10.7447L20.9309 9.44531L18.449 10.7447C18.3684 10.7871 18.2775 10.806 18.1867 10.7993C18.0959 10.7926 18.0088 10.7606 17.9353 10.7068C17.8618 10.6531 17.8048 10.5798 17.7709 10.4953C17.7369 10.4108 17.7274 10.3185 17.7433 10.2288L18.23 7.48894L16.2249 5.5423C16.1624 5.47987 16.118 5.40159 16.0966 5.31585C16.0751 5.23011 16.0774 5.14016 16.1033 5.05564C16.1315 4.96914 16.1834 4.89229 16.253 4.8338C16.3227 4.7753 16.4074 4.73751 16.4975 4.72471L19.2714 4.32078L20.4929 1.82421C20.5328 1.74193 20.595 1.67254 20.6725 1.62399C20.7499 1.57543 20.8395 1.54968 20.9309 1.54968C21.0224 1.54968 21.1119 1.57543 21.1894 1.62399C21.2669 1.67254 21.3291 1.74193 21.3689 1.82421L22.605 4.31591L25.379 4.71984C25.4691 4.73264 25.5538 4.77043 25.6234 4.82893C25.6931 4.88742 25.745 4.96428 25.7732 5.05077C25.799 5.13529 25.8013 5.22525 25.7799 5.31098C25.7585 5.39672 25.7141 5.475 25.6515 5.53743L23.6465 7.48407L24.1332 10.224C24.1505 10.3152 24.1414 10.4095 24.1069 10.4957C24.0724 10.582 24.014 10.6565 23.9385 10.7106C23.8504 10.7724 23.7443 10.8032 23.6368 10.7982Z" fill="#69B99D"/>
</g>
<g clip-path="url(#clip2_1042_415)">
<path d="M37.9122 10.7979C37.8343 10.7982 37.7576 10.7798 37.6883 10.7443L35.2063 9.44494L32.7244 10.7443C32.6438 10.7867 32.5529 10.8056 32.4621 10.7989C32.3713 10.7922 32.2842 10.7602 32.2107 10.7065C32.1371 10.6527 32.0802 10.5794 32.0463 10.4949C32.0123 10.4104 32.0028 10.3181 32.0187 10.2285L32.5054 7.48857L30.5003 5.54193C30.4378 5.4795 30.3934 5.40122 30.372 5.31548C30.3505 5.22975 30.3528 5.13979 30.3787 5.05527C30.4069 4.96878 30.4587 4.89192 30.5284 4.83343C30.5981 4.77493 30.6828 4.73714 30.7728 4.72434L33.5468 4.32041L34.7683 1.82385C34.8082 1.74157 34.8704 1.67217 34.9479 1.62362C35.0253 1.57507 35.1149 1.54932 35.2063 1.54932C35.2977 1.54932 35.3873 1.57507 35.4648 1.62362C35.5422 1.67217 35.6045 1.74157 35.6443 1.82385L36.8804 4.31555L39.6544 4.71947C39.7445 4.73228 39.8291 4.77007 39.8988 4.82856C39.9685 4.88706 40.0204 4.96391 40.0486 5.0504C40.0744 5.13492 40.0767 5.22488 40.0553 5.31062C40.0339 5.39635 39.9895 5.47464 39.9269 5.53706L37.9219 7.4837L38.4085 10.2236C38.4259 10.3148 38.4168 10.4091 38.3823 10.4954C38.3478 10.5816 38.2894 10.6562 38.2139 10.7103C38.1258 10.772 38.0196 10.8028 37.9122 10.7979Z" fill="#69B99D"/>
</g>
<g clip-path="url(#clip3_1042_415)">
<path d="M52.1875 10.798C52.1097 10.7983 52.0329 10.7799 51.9637 10.7444L49.4817 9.44506L46.9997 10.7444C46.9192 10.7868 46.8283 10.8057 46.7375 10.7991C46.6467 10.7924 46.5596 10.7603 46.486 10.7066C46.4125 10.6528 46.3556 10.5796 46.3216 10.4951C46.2877 10.4106 46.2782 10.3182 46.2941 10.2286L46.7808 7.48869L44.7757 5.54205C44.7132 5.47962 44.6688 5.40134 44.6473 5.31561C44.6259 5.22987 44.6282 5.13991 44.654 5.05539C44.6823 4.9689 44.7341 4.89205 44.8038 4.83355C44.8735 4.77506 44.9582 4.73726 45.0482 4.72446L47.8222 4.32053L49.0437 1.82397C49.0836 1.74169 49.1458 1.6723 49.2233 1.62374C49.3007 1.57519 49.3903 1.54944 49.4817 1.54944C49.5731 1.54944 49.6627 1.57519 49.7402 1.62374C49.8176 1.6723 49.8799 1.74169 49.9197 1.82397L51.1558 4.31567L53.9298 4.7196C54.0199 4.7324 54.1045 4.77019 54.1742 4.82868C54.2439 4.88718 54.2958 4.96403 54.324 5.05052C54.3498 5.13504 54.3521 5.225 54.3307 5.31074C54.3093 5.39648 54.2649 5.47476 54.2023 5.53718L52.1973 7.48382L52.6839 10.2237C52.7013 10.315 52.6922 10.4093 52.6577 10.4955C52.6232 10.5817 52.5648 10.6563 52.4893 10.7104C52.4011 10.7721 52.295 10.8029 52.1875 10.798Z" fill="#69B99D"/>
</g>
<g clip-path="url(#clip4_1042_415)">
<path d="M66.4629 10.7981C66.3851 10.7984 66.3083 10.7801 66.2391 10.7446L63.7571 9.44519L61.2751 10.7446C61.1945 10.7869 61.1037 10.8059 61.0129 10.7992C60.9221 10.7925 60.8349 10.7604 60.7614 10.7067C60.6879 10.653 60.631 10.5797 60.597 10.4952C60.5631 10.4107 60.5536 10.3184 60.5695 10.2287L61.0561 7.48881L59.0511 5.54217C58.9885 5.47975 58.9442 5.40146 58.9227 5.31573C58.9013 5.22999 58.9036 5.14003 58.9294 5.05551C58.9576 4.96902 59.0095 4.89217 59.0792 4.83367C59.1489 4.77518 59.2336 4.73739 59.3236 4.72458L62.0976 4.32066L63.3191 1.82409C63.359 1.74181 63.4212 1.67242 63.4986 1.62387C63.5761 1.57531 63.6657 1.54956 63.7571 1.54956C63.8485 1.54956 63.9381 1.57531 64.0156 1.62387C64.093 1.67242 64.1552 1.74181 64.1951 1.82409L65.4312 4.31579L68.2052 4.71972C68.2952 4.73252 68.3799 4.77031 68.4496 4.82881C68.5193 4.8873 68.5712 4.96415 68.5994 5.05065C68.6252 5.13517 68.6275 5.22512 68.6061 5.31086C68.5846 5.3966 68.5403 5.47488 68.4777 5.53731L66.4727 7.48395L66.9593 10.2238C66.9767 10.3151 66.9676 10.4094 66.9331 10.4956C66.8986 10.5819 66.8402 10.6564 66.7647 10.7105C66.6765 10.7723 66.5704 10.8031 66.4629 10.7981Z" fill="#69B99D"/>
</g>
<defs>
<clipPath id="clip0_1042_415">
<rect width="11.6798" height="11.6798" fill="white" transform="translate(0.815674 0.578369)"/>
</clipPath>
<clipPath id="clip1_1042_415">
<rect width="11.6798" height="11.6798" fill="white" transform="translate(15.0911 0.578247)"/>
</clipPath>
<clipPath id="clip2_1042_415">
<rect width="11.6798" height="11.6798" fill="white" transform="translate(29.3665 0.578247)"/>
</clipPath>
<clipPath id="clip3_1042_415">
<rect width="11.6798" height="11.6798" fill="white" transform="translate(43.6418 0.578247)"/>
</clipPath>
<clipPath id="clip4_1042_415">
<rect width="11.6798" height="11.6798" fill="white" transform="translate(57.9172 0.578247)"/>
</clipPath>
</defs>
</svg>
