<svg width="25" height="31" viewBox="0 0 25 31" fill="none" xmlns="http://www.w3.org/2000/svg">
<path fill-rule="evenodd" clip-rule="evenodd" d="M12.1158 29.9935C12.2774 30.078 12.4581 30.1209 12.6388 30.1195C12.8195 30.118 12.9988 30.0737 13.1619 29.9878L18.3687 27.2032C19.8453 26.4158 21.0016 25.5353 21.9036 24.5102C23.865 22.2768 24.9361 19.4264 24.917 16.4872L24.8553 6.79194C24.8494 5.67524 24.1163 4.6788 23.032 4.31659L13.3455 1.06528C12.7622 0.867714 12.1231 0.872009 11.5501 1.07531L1.90038 4.44258C0.821981 4.81911 0.102069 5.8227 0.107946 6.94083L0.169653 16.6289C0.188752 19.5724 1.29654 22.41 3.29025 24.6205C4.20116 25.6312 5.36771 26.4988 6.86043 27.2733L12.1158 29.9935ZM10.7373 18.5987C10.9547 18.8078 11.2368 18.9108 11.5189 18.908C11.801 18.9065 12.0816 18.8006 12.2961 18.5887L17.9864 12.9766C18.4139 12.5542 18.4095 11.8756 17.9776 11.459C17.5441 11.0424 16.8463 11.0453 16.4187 11.4676L11.5028 16.3152L9.48994 14.3796C9.05653 13.963 8.36012 13.9673 7.93111 14.3896C7.50357 14.812 7.50798 15.4906 7.9414 15.9072L10.7373 18.5987Z" fill="#69B99D"/>
</svg>
