<svg width="31" height="27" viewBox="0 0 31 27" fill="none" xmlns="http://www.w3.org/2000/svg">
<path fill-rule="evenodd" clip-rule="evenodd" d="M26.8387 13.5211C26.8387 14.7088 27.8135 15.6752 29.0117 15.6752C29.6159 15.6752 30.1062 16.1612 30.1062 16.7601V20.6675C30.1062 23.9716 27.3947 26.6595 24.0615 26.6595H6.96489C3.63168 26.6595 0.918701 23.9716 0.918701 20.6675V16.7601C0.918701 16.1612 1.40905 15.6752 2.01323 15.6752C3.21284 15.6752 4.1877 14.7088 4.1877 13.5211C4.1877 12.3638 3.25224 11.4929 2.01323 11.4929C1.72282 11.4929 1.44554 11.3786 1.23976 11.1747C1.03399 10.9707 0.918701 10.6944 0.918701 10.408L0.92162 6.37329C0.92162 3.06918 3.63314 0.379883 6.96635 0.379883H24.0586C27.3918 0.379883 30.1048 3.06918 30.1048 6.37329L30.1062 10.2821C30.1062 10.5685 29.9909 10.8463 29.7866 11.0488C29.5808 11.2528 29.3036 11.3671 29.0117 11.3671C27.8135 11.3671 26.8387 12.3334 26.8387 13.5211ZM18.7989 14.4659L20.5195 12.8052C20.8187 12.5188 20.9223 12.0964 20.7924 11.7058C20.664 11.3152 20.3283 11.0374 19.9226 10.981L17.5453 10.6367L16.4814 8.50146C16.299 8.13402 15.9283 7.90545 15.5153 7.904H15.5124C15.1008 7.904 14.7302 8.13257 14.5448 8.50002L13.4809 10.6367L11.108 10.9795C10.6979 11.0374 10.3623 11.3152 10.2324 11.7058C10.1039 12.0964 10.2076 12.5188 10.5053 12.8052L12.2259 14.4659L11.8202 16.8138C11.7501 17.2189 11.915 17.621 12.2507 17.8626C12.4404 17.9972 12.6608 18.0666 12.8841 18.0666C13.0548 18.0666 13.227 18.0247 13.3846 17.9422L15.5124 16.8341L17.6358 17.9393C18.0035 18.1346 18.4399 18.1042 18.7741 17.8612C19.1112 17.621 19.2761 17.2189 19.2061 16.8138L18.7989 14.4659Z" fill="#69B99D"/>
</svg>
