<svg width="31" height="29" viewBox="0 0 31 29" fill="none" xmlns="http://www.w3.org/2000/svg">
<path d="M24.1498 17.9071C23.7719 18.2736 23.5982 18.8036 23.6843 19.3233L24.9817 26.5064C25.0911 27.1152 24.8343 27.7313 24.325 28.0832C23.8259 28.4482 23.1618 28.492 22.6175 28.2L16.1539 24.8274C15.9292 24.7077 15.6796 24.6435 15.4242 24.6362H15.0287C14.8916 24.6566 14.7573 24.7004 14.6347 24.7676L8.16967 28.1562C7.85007 28.3168 7.48814 28.3737 7.13351 28.3168C6.26956 28.1533 5.69311 27.3298 5.83467 26.4612L7.13351 19.278C7.21962 18.7539 7.04595 18.221 6.66797 17.8487L1.39817 12.7388C0.957435 12.311 0.8042 11.6686 1.00559 11.089C1.20115 10.5109 1.70026 10.0889 2.30298 9.99403L9.55608 8.94138C10.1077 8.88444 10.5922 8.54865 10.8403 8.05225L14.0364 1.49694C14.1122 1.35094 14.21 1.21662 14.3282 1.10274L14.4596 1.00054C14.5282 0.924623 14.607 0.861844 14.6945 0.810744L14.8536 0.752345L15.1017 0.650146H15.7161C16.2648 0.707086 16.7479 1.03558 17.0004 1.52614L20.2387 8.05225C20.4722 8.52967 20.9261 8.86108 21.45 8.94138L28.7031 9.99403C29.316 10.0816 29.8283 10.505 30.0311 11.089C30.2223 11.6745 30.0574 12.3169 29.6079 12.7388L24.1498 17.9071Z" fill="#69B99D"/>
</svg>
