<svg width="27" height="27" viewBox="0 0 27 27" fill="none" xmlns="http://www.w3.org/2000/svg">
<circle cx="13.2779" cy="13.4291" r="12.9776" fill="#F8F9F9"/>
<path fill-rule="evenodd" clip-rule="evenodd" d="M10.9551 10.1342C12.5012 10.0132 14.0543 10.0132 15.6003 10.1342L16.6389 10.2154C17.2173 10.2607 17.6906 10.6942 17.7862 11.2665C18.0254 12.6985 18.0254 14.1602 17.7862 15.5921C17.6906 16.1644 17.2173 16.598 16.6389 16.6432L15.6003 16.7245C14.0543 16.8454 12.5012 16.8454 10.9551 16.7245L9.9166 16.6432C9.33814 16.598 8.86491 16.1644 8.76928 15.5921C8.53003 14.1602 8.53003 12.6985 8.76928 11.2665C8.86491 10.6942 9.33814 10.2607 9.9166 10.2154L10.9551 10.1342ZM12.3507 14.5742V12.2844C12.3507 12.1764 12.4687 12.1096 12.5613 12.1652L14.4695 13.3101C14.5595 13.3641 14.5595 13.4945 14.4695 13.5485L12.5613 14.6934C12.4687 14.749 12.3507 14.6823 12.3507 14.5742Z" fill="#29CDB5"/>
</svg>
